<mxfile host="app.diagrams.net" modified="2023-10-28T03:51:00.117Z" agent="Mozilla/5.0 (iPhone; CPU iPhone OS 17_0 like Mac OS X) AppleWebKit/605.1.15 (KHTML, like Gecko) CriOS/118.0.5993.92 Mobile/15E148 Safari/604.1" version="22.0.8" etag="v7wJwmT_vYr--xZZh8rb" type="github">
  <diagram name="Trang-1" id="HQDmWWx3WMr8345ySSzI">
    <mxGraphModel>
      <root>
        <mxCell id="0" />
        <mxCell id="1" parent="0" />
      </root>
    </mxGraphModel>
  </diagram>
</mxfile>
